:SAMPLES-PER-SECOND 30
:FULLY-SPECIFIED
:DEGREES
543
root  -3.76825 41.0358 0.639791 7.03381 -86.3381 -3.40262
RightUpLeg  2.49052 -0.748814 -0.902143
RightLeg  -8.02543 -23.1839 3.47642
RightFoot  2.75065 -0.239687 2.07042
RightToes  -3.13588e-008 1.75238e-005 3.56266e-009
Spine  2.68526 0.221697 -3.27198
Spine1  -6.4793 -0.159639 3.5515
HEad  -6.78284 -0.866318 3.60748
LeftShoulder1  0.540113 1.1927 -16.6321
LeftArm  -76.0217 -23.0757 -12.769
LeftForeArm  93.4731 -79.8699 -93.8385
LeftHand  -0.980272 -4.63709 11.6242
RightShoulder  0.0884161 -2.98996 10.6084
RightArm  -65.3831 15.519 6.38076
RightForeArm  56.7019 78.0817 98.159
RightHand  -1.20386 9.28017 -9.87263
LeftUpLeg  0.883856 0.874255 3.14336
LeftLeg  -5.53764 12.0533 -1.36206
LeftFoot  1.92454 0.366551 -3.26804
LeftToes  4.76812e-008 1.47286e-008 1.3089e-009
544
root  -3.77779 41.0356 0.647757 7.48044 -86.3129 -3.88138
RightUpLeg  2.52278 -0.763975 -0.894302
RightLeg  -7.97417 -23.1807 3.48592
RightFoot  2.73294 -0.240353 2.08074
RightToes  -3.13588e-008 1.75238e-005 3.56266e-009
Spine  2.54767 0.13626 -3.12767
Spine1  -6.49119 -0.222612 3.37092
HEad  -6.78772 -0.500213 3.8951
LeftShoulder1  0.504966 1.33658 -16.5536
LeftArm  -72.6796 -23.1937 -14.0605
LeftForeArm  92.0291 -79.903 -91.9967
LeftHand  -0.968749 -4.79111 11.3157
RightShoulder  0.0647924 -3.12585 10.7855
RightArm  -62.3289 16.1724 7.36021
RightForeArm  55.6246 78.1623 96.1514
RightHand  -1.27274 9.23007 -10.4459
LeftUpLeg  0.880545 0.907389 3.17299
LeftLeg  -5.43857 11.9815 -1.3421
LeftFoot  1.88265 0.368952 -3.29375
LeftToes  4.76812e-008 1.47286e-008 1.3089e-009
545
root  -3.77392 41.0353 0.646812 7.76282 -86.3911 -4.19742
RightUpLeg  2.50004 -0.739219 -0.872064
RightLeg  -7.88523 -23.1499 3.42974
RightFoot  2.7066 -0.242642 2.12082
RightToes  -3.13588e-008 1.75238e-005 3.56266e-009
Spine  2.4733 0.119605 -3.21536
Spine1  -6.64724 -0.245583 3.48882
HEad  -6.44241 -0.500774 3.7744
LeftShoulder1  0.425548 1.6841 -16.6224
LeftArm  -67.482 -22.7136 -15.4882
LeftForeArm  91.2959 -79.9216 -90.9575
LeftHand  -0.936023 -4.79302 10.9452
RightShoulder  0.120291 -2.8176 10.7801
RightArm  -58.4332 16.1491 8.11636
RightForeArm  54.6229 78.2249 94.3088
RightHand  -1.31787 9.7051 -10.4787
LeftUpLeg  0.920805 0.95997 3.2069
LeftLeg  -5.43079 12.0057 -1.37498
LeftFoot  1.84118 0.371349 -3.31262
LeftToes  4.76812e-008 1.47286e-008 1.3089e-009
546
root  -3.764 41.035 0.63722 8.10947 -86.4142 -4.62131
RightUpLeg  2.56062 -0.720751 -0.829955
RightLeg  -7.87267 -23.1353 3.42125
RightFoot  2.69297 -0.242397 2.1254
RightToes  -3.13588e-008 1.75238e-005 3.56266e-009
Spine  2.14658 0.219868 -3.40217
Spine1  -6.45876 -0.180069 3.82155
HEad  -6.4332 -0.463158 3.71359
LeftShoulder1  0.573893 1.07769 -16.9478
LeftArm  -62.0765 -21.5185 -16.1654
LeftForeArm  91.5956 -79.8978 -91.6998
LeftHand  -0.937737 -4.91688 10.8243
RightShoulder  0.14162 -2.69635 10.6906
RightArm  -53.4463 15.7869 8.98406
RightForeArm  57.6755 78.2073 96.5871
RightHand  -1.37517 9.50686 -11.0509
LeftUpLeg  0.962336 1.02582 3.26126
LeftLeg  -5.36798 11.991 -1.38696
LeftFoot  1.82033 0.371362 -3.29046
LeftToes  4.76812e-008 1.47286e-008 1.3089e-009
547
root  -3.75313 41.0342 0.625601 7.88477 -86.3754 -4.5069
RightUpLeg  2.65584 -0.762892 -0.836274
RightLeg  -7.83468 -23.1316 3.44189
RightFoot  2.63026 -0.241236 2.11884
RightToes  -3.13588e-008 1.75238e-005 3.56266e-009
Spine  1.74204 0.0817181 -3.65538
Spine1  -5.94631 -0.361752 4.165
HEad  -6.27724 -0.940198 3.27027
LeftShoulder1  0.591129 1.01057 -17.002
LeftArm  -56.0835 -19.91 -17.3728
LeftForeArm  96.0544 -79.8085 -96.6946
LeftHand  -1.06381 -4.60083 12.5793
RightShoulder  0.187424 -2.45864 11.0303
RightArm  -48.4295 16.3602 10.1753
RightForeArm  62.222 78.1565 99.8305
RightHand  -1.3963 9.44701 -11.2568
LeftUpLeg  1.03084 1.03527 3.272
LeftLeg  -5.30417 11.9126 -1.35574
LeftFoot  1.81762 0.370997 -3.26135
LeftToes  4.76812e-008 1.47286e-008 1.3089e-009
548
root  -3.7332 41.0327 0.613857 7.67648 -86.4117 -4.32837
RightUpLeg  2.57828 -0.760162 -0.83262
RightLeg  -7.67079 -23.1044 3.36275
RightFoot  2.58801 -0.244539 2.18385
RightToes  -3.13588e-008 1.75238e-005 3.56266e-009
Spine  1.69853 0.122695 -3.84481
Spine1  -6.21379 -0.331608 4.38579
HEad  -6.11422 -1.20125 3.25593
LeftShoulder1  0.64729 0.775275 -17.018
LeftArm  -49.8811 -18.4005 -19.4608
LeftForeArm  102.983 -79.6364 -103.183
LeftHand  -0.771724 -3.78224 10.0316
RightShoulder  0.296484 -1.87905 11.263
RightArm  -43.2219 15.6796 11.5168
RightForeArm  68.2148 77.9882 104.628
RightHand  -1.4003 9.35806 -11.3526
LeftUpLeg  1.02735 1.046 3.27559
LeftLeg  -5.29657 11.8998 -1.36355
LeftFoot  1.86451 0.369618 -3.21825
LeftToes  4.76812e-008 1.47286e-008 1.3089e-009
